<mxfile host="Electron" agent="Mozilla/5.0 (Windows NT 10.0; Win64; x64) AppleWebKit/537.36 (KHTML, like Gecko) draw.io/25.0.2 Chrome/128.0.6613.186 Electron/32.2.5 Safari/537.36" version="25.0.2">
  <diagram name="Page-1" id="ZFWVXQ1Z0pBYEthVD5IX">
    <mxGraphModel dx="1502" dy="685" grid="1" gridSize="10" guides="1" tooltips="1" connect="1" arrows="1" fold="1" page="1" pageScale="1" pageWidth="827" pageHeight="1169" math="0" shadow="0">
      <root>
        <mxCell id="0" />
        <mxCell id="1" parent="0" />
        <mxCell id="2ZdUj93LuS4gFnl_lG0V-3" value="" style="edgeStyle=orthogonalEdgeStyle;rounded=0;orthogonalLoop=1;jettySize=auto;html=1;" edge="1" parent="1" source="8qHCZE8XLDsl83MSMVz2-1" target="2ZdUj93LuS4gFnl_lG0V-1">
          <mxGeometry relative="1" as="geometry" />
        </mxCell>
        <mxCell id="8qHCZE8XLDsl83MSMVz2-1" value="เริ่ม" style="strokeWidth=2;html=1;shape=mxgraph.flowchart.terminator;whiteSpace=wrap;" parent="1" vertex="1">
          <mxGeometry x="329" y="80" width="170" height="60" as="geometry" />
        </mxCell>
        <mxCell id="2ZdUj93LuS4gFnl_lG0V-5" value="" style="edgeStyle=orthogonalEdgeStyle;rounded=0;orthogonalLoop=1;jettySize=auto;html=1;" edge="1" parent="1" source="2ZdUj93LuS4gFnl_lG0V-1" target="2ZdUj93LuS4gFnl_lG0V-4">
          <mxGeometry relative="1" as="geometry" />
        </mxCell>
        <mxCell id="2ZdUj93LuS4gFnl_lG0V-1" value="กำหนดอาเรย์ num[100] และค่าเริ่มต้นให้กับอาเรย์" style="whiteSpace=wrap;html=1;strokeWidth=2;" vertex="1" parent="1">
          <mxGeometry x="304" y="190" width="220" height="60" as="geometry" />
        </mxCell>
        <mxCell id="2ZdUj93LuS4gFnl_lG0V-7" value="" style="edgeStyle=orthogonalEdgeStyle;rounded=0;orthogonalLoop=1;jettySize=auto;html=1;" edge="1" parent="1" source="2ZdUj93LuS4gFnl_lG0V-4" target="2ZdUj93LuS4gFnl_lG0V-6">
          <mxGeometry relative="1" as="geometry" />
        </mxCell>
        <mxCell id="2ZdUj93LuS4gFnl_lG0V-4" value="&lt;div&gt;&amp;nbsp;แสดงค่าที่รับเข้ามา&lt;br&gt;&lt;/div&gt;" style="shape=parallelogram;perimeter=parallelogramPerimeter;whiteSpace=wrap;html=1;fixedSize=1;strokeWidth=2;" vertex="1" parent="1">
          <mxGeometry x="296.5" y="290" width="235" height="60" as="geometry" />
        </mxCell>
        <mxCell id="2ZdUj93LuS4gFnl_lG0V-9" value="" style="edgeStyle=orthogonalEdgeStyle;rounded=0;orthogonalLoop=1;jettySize=auto;html=1;" edge="1" parent="1" source="2ZdUj93LuS4gFnl_lG0V-6" target="2ZdUj93LuS4gFnl_lG0V-8">
          <mxGeometry relative="1" as="geometry" />
        </mxCell>
        <mxCell id="2ZdUj93LuS4gFnl_lG0V-6" value="&amp;nbsp;เรียงข้อมูลจากน้อยไปมาก (Ascending Order)" style="whiteSpace=wrap;html=1;strokeWidth=2;" vertex="1" parent="1">
          <mxGeometry x="304" y="390" width="220" height="60" as="geometry" />
        </mxCell>
        <mxCell id="2ZdUj93LuS4gFnl_lG0V-11" value="" style="edgeStyle=orthogonalEdgeStyle;rounded=0;orthogonalLoop=1;jettySize=auto;html=1;" edge="1" parent="1" source="2ZdUj93LuS4gFnl_lG0V-8" target="2ZdUj93LuS4gFnl_lG0V-10">
          <mxGeometry relative="1" as="geometry" />
        </mxCell>
        <mxCell id="2ZdUj93LuS4gFnl_lG0V-8" value="&lt;div&gt;&amp;nbsp;แสดงผลข้อมูลที่เรียงจากน้อยไปมาก&lt;br&gt;&lt;/div&gt;" style="shape=parallelogram;perimeter=parallelogramPerimeter;whiteSpace=wrap;html=1;fixedSize=1;strokeWidth=2;" vertex="1" parent="1">
          <mxGeometry x="296" y="480" width="235" height="60" as="geometry" />
        </mxCell>
        <mxCell id="2ZdUj93LuS4gFnl_lG0V-13" value="" style="edgeStyle=orthogonalEdgeStyle;rounded=0;orthogonalLoop=1;jettySize=auto;html=1;" edge="1" parent="1" source="2ZdUj93LuS4gFnl_lG0V-10" target="2ZdUj93LuS4gFnl_lG0V-12">
          <mxGeometry relative="1" as="geometry" />
        </mxCell>
        <mxCell id="2ZdUj93LuS4gFnl_lG0V-10" value="&amp;nbsp;เรียงข้อมูลจากมากไปน้อย (Descending Order)" style="whiteSpace=wrap;html=1;strokeWidth=2;" vertex="1" parent="1">
          <mxGeometry x="304" y="585" width="220" height="60" as="geometry" />
        </mxCell>
        <mxCell id="2ZdUj93LuS4gFnl_lG0V-15" value="" style="edgeStyle=orthogonalEdgeStyle;rounded=0;orthogonalLoop=1;jettySize=auto;html=1;" edge="1" parent="1" source="2ZdUj93LuS4gFnl_lG0V-12" target="2ZdUj93LuS4gFnl_lG0V-14">
          <mxGeometry relative="1" as="geometry" />
        </mxCell>
        <mxCell id="2ZdUj93LuS4gFnl_lG0V-12" value="&lt;div&gt;&amp;nbsp;แสดงผลข้อมูลที่เรียงจากมากไปน้อย&lt;br&gt;&lt;/div&gt;" style="shape=parallelogram;perimeter=parallelogramPerimeter;whiteSpace=wrap;html=1;fixedSize=1;strokeWidth=2;" vertex="1" parent="1">
          <mxGeometry x="296" y="700" width="235" height="60" as="geometry" />
        </mxCell>
        <mxCell id="2ZdUj93LuS4gFnl_lG0V-14" value="จบ" style="strokeWidth=2;html=1;shape=mxgraph.flowchart.terminator;whiteSpace=wrap;" vertex="1" parent="1">
          <mxGeometry x="329" y="810" width="170" height="60" as="geometry" />
        </mxCell>
      </root>
    </mxGraphModel>
  </diagram>
</mxfile>
